# xmcd
#
# Track frame offsets:
#	150
#	11782
#	25002
#	40827
#	53530
#	67292
#	79087
#	89107
#	99575
#	106837
#	118715
#	127805
#	140660
#	153727
#	166022
#
# Disc length: 2374 seconds
# Revision: 0
# Processed by: cddbd v1.5.2PL0 Copyright (c) Steve Scherf et al.
# Submitted via: dBpowerAMP V12.0
#
DISCID=c409440f
DTITLE=Sonny Boy Williamson - One Way Out
DYEAR=1957
DGENRE=Blues
TTITLE0=Born Blind
TTITLE1=Work With Me
TTITLE2=You Killing Me
TTITLE3=Keep It to Yourself
TTITLE4=Don't Lose Your Eye
TTITLE5=Good Evening Everybody
TTITLE6=Too Close Together
TTITLE7=Let Your Conscience Be Your Guide
TTITLE8=I Wonder Why
TTITLE9=This Is My Apartment
TTITLE10=One Way Out
TTITLE11=Like Wolf
TTITLE12=Have You Ever Been in Love
TTITLE13=Cool Disposition
TTITLE14=I Know What Love Is All About
EXTD=
EXTT0=
EXTT1=
EXTT2=
EXTT3=
EXTT4=
EXTT5=
EXTT6=
EXTT7=
EXTT8=
EXTT9=
EXTT10=
EXTT11=
EXTT12=
EXTT13=
EXTT14=
PLAYORDER=
